<svg width="217" height="69" viewBox="0 0 217 69" fill="none" xmlns="http://www.w3.org/2000/svg">
<path d="M9.68 12.04L9.52 13.52L10.4 12.4L20 1.56H27.52L15.36 14.76L27.56 31H20.2L11.12 18.44L9.68 19.88V31H3.8V1.56H9.68V12.04ZM40.8841 1.56C42.7241 1.56 44.3641 1.8 45.8041 2.28C47.2441 2.73333 48.4441 3.4 49.4041 4.28C50.3907 5.13333 51.1374 6.17333 51.6441 7.4C52.1507 8.6 52.4041 9.96 52.4041 11.48C52.4041 12.68 52.2174 13.88 51.8441 15.08C51.4974 16.28 50.9107 17.3733 50.0841 18.36C49.2841 19.3467 48.2174 20.1467 46.8841 20.76C45.5507 21.3467 43.8974 21.64 41.9241 21.64H37.7641V31H31.9641V1.56H40.8841ZM41.8841 16.04C42.7641 16.04 43.4974 15.8933 44.0841 15.6C44.6707 15.3067 45.1241 14.9333 45.4441 14.48C45.7907 14.0267 46.0307 13.56 46.1641 13.08C46.3241 12.5733 46.4041 12.1067 46.4041 11.68C46.4041 11.36 46.3507 10.96 46.2441 10.48C46.1641 9.97333 45.9774 9.46667 45.6841 8.96C45.3907 8.45333 44.9374 8.02667 44.3241 7.68C43.7374 7.33333 42.9374 7.16 41.9241 7.16H37.7641V16.04H41.8841ZM47.3241 19.64L54.6041 31H47.8441L40.4041 19.8L47.3241 19.64ZM59.3859 1.56H65.1859V31H59.3859V1.56ZM70.7844 1.56H90.6244V7.16H83.4644V31H77.6644V7.16H70.7844V1.56ZM94.2219 1.56H114.062V7.16H106.902V31H101.102V7.16H94.2219V1.56ZM128.579 1.56C131.006 1.56 133.059 1.97333 134.739 2.8C136.419 3.6 137.699 4.74667 138.579 6.24C139.459 7.70667 139.899 9.45333 139.899 11.48C139.899 12.68 139.713 13.8933 139.339 15.12C138.993 16.32 138.419 17.4133 137.619 18.4C136.846 19.3867 135.793 20.1867 134.459 20.8C133.153 21.3867 131.539 21.68 129.619 21.68H125.459V31H119.659V1.56H128.579ZM129.579 16.04C130.459 16.04 131.193 15.8933 131.779 15.6C132.366 15.28 132.819 14.8933 133.139 14.44C133.486 13.96 133.726 13.4667 133.859 12.96C134.019 12.4533 134.099 12.0133 134.099 11.64C134.099 11.3467 134.046 10.96 133.939 10.48C133.859 9.97333 133.673 9.46667 133.379 8.96C133.086 8.45333 132.633 8.02667 132.019 7.68C131.433 7.33333 130.633 7.16 129.619 7.16H125.459V16.04H129.579ZM138.8 31L152.08 0.399998H152.4L165.68 31H158.96L150.48 9.48L154.68 6.6L144.52 31H138.8ZM147.88 20.36H156.72L158.76 25.24H146.08L147.88 20.36ZM178.892 1.56C180.732 1.56 182.372 1.8 183.812 2.28C185.252 2.73333 186.452 3.4 187.412 4.28C188.399 5.13333 189.145 6.17333 189.652 7.4C190.159 8.6 190.412 9.96 190.412 11.48C190.412 12.68 190.225 13.88 189.852 15.08C189.505 16.28 188.919 17.3733 188.092 18.36C187.292 19.3467 186.225 20.1467 184.892 20.76C183.559 21.3467 181.905 21.64 179.932 21.64H175.772V31H169.972V1.56H178.892ZM179.892 16.04C180.772 16.04 181.505 15.8933 182.092 15.6C182.679 15.3067 183.132 14.9333 183.452 14.48C183.799 14.0267 184.039 13.56 184.172 13.08C184.332 12.5733 184.412 12.1067 184.412 11.68C184.412 11.36 184.359 10.96 184.252 10.48C184.172 9.97333 183.985 9.46667 183.692 8.96C183.399 8.45333 182.945 8.02667 182.332 7.68C181.745 7.33333 180.945 7.16 179.932 7.16H175.772V16.04H179.892ZM185.332 19.64L192.612 31H185.852L178.412 19.8L185.332 19.64ZM194.808 1.56H214.648V7.16H207.488V31H201.688V7.16H194.808V1.56Z" fill="#FAFF00"/>
<path d="M11.13 34.24C13.2533 34.24 15.05 34.6017 16.52 35.325C17.99 36.025 19.11 37.0283 19.88 38.335C20.65 39.6183 21.035 41.1467 21.035 42.92C21.035 43.97 20.8717 45.0317 20.545 46.105C20.2417 47.155 19.74 48.1117 19.04 48.975C18.3633 49.8383 17.4417 50.5383 16.275 51.075C15.1317 51.5883 13.72 51.845 12.04 51.845H8.4V60H3.325V34.24H11.13ZM12.005 46.91C12.775 46.91 13.4167 46.7817 13.93 46.525C14.4433 46.245 14.84 45.9067 15.12 45.51C15.4233 45.09 15.6333 44.6583 15.75 44.215C15.89 43.7717 15.96 43.3867 15.96 43.06C15.96 42.8033 15.9133 42.465 15.82 42.045C15.75 41.6017 15.5867 41.1583 15.33 40.715C15.0733 40.2717 14.6767 39.8983 14.14 39.595C13.6267 39.2917 12.9267 39.14 12.04 39.14H8.4V46.91H12.005ZM23.581 52.16C23.581 50.5967 23.9426 49.1967 24.666 47.96C25.4126 46.7233 26.451 45.755 27.781 45.055C29.111 44.3317 30.6393 43.97 32.366 43.97C34.116 43.97 35.6326 44.3317 36.916 45.055C38.1993 45.755 39.1793 46.7233 39.856 47.96C40.556 49.1967 40.906 50.5967 40.906 52.16C40.906 53.7233 40.556 55.135 39.856 56.395C39.1793 57.6317 38.1993 58.6117 36.916 59.335C35.6326 60.0583 34.0926 60.42 32.296 60.42C30.616 60.42 29.111 60.0933 27.781 59.44C26.4743 58.7867 25.4476 57.8417 24.701 56.605C23.9543 55.3683 23.581 53.8867 23.581 52.16ZM28.516 52.195C28.516 52.9883 28.6793 53.7117 29.006 54.365C29.3326 54.995 29.776 55.4967 30.336 55.87C30.896 56.2433 31.526 56.43 32.226 56.43C32.996 56.43 33.661 56.2433 34.221 55.87C34.781 55.4967 35.2126 54.995 35.516 54.365C35.8193 53.7117 35.971 52.9883 35.971 52.195C35.971 51.3783 35.8193 50.655 35.516 50.025C35.2126 49.395 34.781 48.8933 34.221 48.52C33.661 48.1467 32.996 47.96 32.226 47.96C31.526 47.96 30.896 48.1467 30.336 48.52C29.776 48.8933 29.3326 49.395 29.006 50.025C28.6793 50.655 28.516 51.3783 28.516 52.195ZM49.1761 44.705L49.6311 48.905L49.5261 48.275C49.9694 47.365 50.5761 46.595 51.3461 45.965C52.1161 45.3117 52.8744 44.81 53.6211 44.46C54.3911 44.11 54.9744 43.935 55.3711 43.935L55.1261 48.835C53.9828 48.695 53.0028 48.8817 52.1861 49.395C51.3694 49.9083 50.7394 50.585 50.2961 51.425C49.8528 52.265 49.6311 53.1283 49.6311 54.015V60H44.7661V44.705H49.1761ZM60.5566 37.985H65.4566V44.635H69.1666V48.45H65.4566V60H60.5566V48.45H58.1766V44.635H60.5566V37.985ZM74.366 60V48.975H71.776V44.635H74.366V39.315C74.366 37.3083 74.9376 35.675 76.081 34.415C77.2476 33.1317 78.9276 32.49 81.121 32.49C81.7743 32.49 82.4976 32.595 83.291 32.805C84.1076 32.9917 84.8193 33.3067 85.426 33.75L83.361 37.285C83.1276 36.9817 82.8476 36.7833 82.521 36.69C82.2176 36.5733 81.926 36.515 81.646 36.515C80.946 36.515 80.3743 36.7483 79.931 37.215C79.4876 37.6817 79.266 38.4283 79.266 39.455V44.635H83.886V48.975H79.266V60H74.366ZM85.8905 52.16C85.8905 50.5967 86.2522 49.1967 86.9755 47.96C87.7222 46.7233 88.7605 45.755 90.0905 45.055C91.4205 44.3317 92.9489 43.97 94.6755 43.97C96.4255 43.97 97.9422 44.3317 99.2255 45.055C100.509 45.755 101.489 46.7233 102.166 47.96C102.866 49.1967 103.216 50.5967 103.216 52.16C103.216 53.7233 102.866 55.135 102.166 56.395C101.489 57.6317 100.509 58.6117 99.2255 59.335C97.9422 60.0583 96.4022 60.42 94.6055 60.42C92.9255 60.42 91.4205 60.0933 90.0905 59.44C88.7839 58.7867 87.7572 57.8417 87.0105 56.605C86.2639 55.3683 85.8905 53.8867 85.8905 52.16ZM90.8255 52.195C90.8255 52.9883 90.9889 53.7117 91.3155 54.365C91.6422 54.995 92.0855 55.4967 92.6455 55.87C93.2055 56.2433 93.8355 56.43 94.5355 56.43C95.3055 56.43 95.9705 56.2433 96.5305 55.87C97.0905 55.4967 97.5222 54.995 97.8255 54.365C98.1289 53.7117 98.2805 52.9883 98.2805 52.195C98.2805 51.3783 98.1289 50.655 97.8255 50.025C97.5222 49.395 97.0905 48.8933 96.5305 48.52C95.9705 48.1467 95.3055 47.96 94.5355 47.96C93.8355 47.96 93.2055 48.1467 92.6455 48.52C92.0855 48.8933 91.6422 49.395 91.3155 50.025C90.9889 50.655 90.8255 51.3783 90.8255 52.195ZM107.076 32.385H111.976V60H107.076V32.385ZM117.022 44.705H121.922V60H117.022V44.705ZM116.917 39.28C116.917 38.5567 117.197 37.9617 117.757 37.495C118.34 37.0283 118.959 36.795 119.612 36.795C120.265 36.795 120.86 37.0283 121.397 37.495C121.957 37.9617 122.237 38.5567 122.237 39.28C122.237 40.0033 121.957 40.5983 121.397 41.065C120.86 41.5083 120.265 41.73 119.612 41.73C118.959 41.73 118.34 41.5083 117.757 41.065C117.197 40.5983 116.917 40.0033 116.917 39.28ZM125.778 52.16C125.778 50.5967 126.14 49.1967 126.863 47.96C127.61 46.7233 128.648 45.755 129.978 45.055C131.308 44.3317 132.837 43.97 134.563 43.97C136.313 43.97 137.83 44.3317 139.113 45.055C140.397 45.755 141.377 46.7233 142.053 47.96C142.753 49.1967 143.103 50.5967 143.103 52.16C143.103 53.7233 142.753 55.135 142.053 56.395C141.377 57.6317 140.397 58.6117 139.113 59.335C137.83 60.0583 136.29 60.42 134.493 60.42C132.813 60.42 131.308 60.0933 129.978 59.44C128.672 58.7867 127.645 57.8417 126.898 56.605C126.152 55.3683 125.778 53.8867 125.778 52.16ZM130.713 52.195C130.713 52.9883 130.877 53.7117 131.203 54.365C131.53 54.995 131.973 55.4967 132.533 55.87C133.093 56.2433 133.723 56.43 134.423 56.43C135.193 56.43 135.858 56.2433 136.418 55.87C136.978 55.4967 137.41 54.995 137.713 54.365C138.017 53.7117 138.168 52.9883 138.168 52.195C138.168 51.3783 138.017 50.655 137.713 50.025C137.41 49.395 136.978 48.8933 136.418 48.52C135.858 48.1467 135.193 47.96 134.423 47.96C133.723 47.96 133.093 48.1467 132.533 48.52C131.973 48.8933 131.53 49.395 131.203 50.025C130.877 50.655 130.713 51.3783 130.713 52.195Z" fill="#FAFF00"/>
</svg>
